ply
format ascii 1.0
comment Created by Blender 2.92.0 - www.blender.org
element vertex 192
property float x
property float y
property float z
property float nx
property float ny
property float nz
property float s
property float t
property uchar red
property uchar green
property uchar blue
property uchar alpha
element face 34
property list uchar uint vertex_indices
end_header
0.000000 1.000000 -1.000000 0.098017 0.995185 0.000000 1.000000 0.500000 0 32 255 255
0.000000 1.000000 1.000000 0.098017 0.995185 0.000000 1.000000 1.000000 195 255 40 255
0.195090 0.980785 1.000000 0.098017 0.995185 0.000000 0.968750 1.000000 193 255 45 255
0.195090 0.980785 -1.000000 0.098017 0.995185 0.000000 0.968750 0.500000 0 32 255 255
0.195090 0.980785 -1.000000 0.290285 0.956940 0.000000 0.968750 0.500000 0 32 255 255
0.195090 0.980785 1.000000 0.290285 0.956940 0.000000 0.968750 1.000000 193 255 45 255
0.382683 0.923880 1.000000 0.290285 0.956940 0.000000 0.937500 1.000000 183 249 54 255
0.382683 0.923880 -1.000000 0.290285 0.956940 0.000000 0.937500 0.500000 0 32 255 255
0.382683 0.923880 -1.000000 0.471397 0.881921 0.000000 0.937500 0.500000 0 32 255 255
0.382683 0.923880 1.000000 0.471397 0.881921 0.000000 0.937500 1.000000 183 249 54 255
0.555570 0.831470 1.000000 0.471397 0.881921 0.000000 0.906250 1.000000 193 209 66 255
0.555570 0.831470 -1.000000 0.471397 0.881921 0.000000 0.906250 0.500000 0 32 255 255
0.555570 0.831470 -1.000000 0.634393 0.773010 0.000000 0.906250 0.500000 0 32 255 255
0.555570 0.831470 1.000000 0.634393 0.773010 0.000000 0.906250 1.000000 193 209 66 255
0.707107 0.707107 1.000000 0.634393 0.773010 0.000000 0.875000 1.000000 224 139 84 255
0.707107 0.707107 -1.000000 0.634393 0.773010 0.000000 0.875000 0.500000 0 32 255 255
0.707107 0.707107 -1.000000 0.773010 0.634393 0.000000 0.875000 0.500000 0 32 255 255
0.707107 0.707107 1.000000 0.773010 0.634393 0.000000 0.875000 1.000000 224 139 84 255
0.831470 0.555570 1.000000 0.773010 0.634393 0.000000 0.843750 1.000000 231 108 96 255
0.831470 0.555570 -1.000000 0.773010 0.634393 0.000000 0.843750 0.500000 0 32 255 255
0.831470 0.555570 -1.000000 0.881921 0.471397 0.000000 0.843750 0.500000 0 32 255 255
0.831470 0.555570 1.000000 0.881921 0.471397 0.000000 0.843750 1.000000 231 108 96 255
0.923880 0.382683 1.000000 0.881921 0.471397 0.000000 0.812500 1.000000 224 113 107 255
0.923880 0.382683 -1.000000 0.881921 0.471397 0.000000 0.812500 0.500000 0 32 255 255
0.923880 0.382683 -1.000000 0.956940 0.290285 0.000000 0.812500 0.500000 0 32 255 255
0.923880 0.382683 1.000000 0.956940 0.290285 0.000000 0.812500 1.000000 224 113 107 255
0.980785 0.195090 1.000000 0.956940 0.290285 0.000000 0.781250 1.000000 222 123 108 255
0.980785 0.195090 -1.000000 0.956940 0.290285 0.000000 0.781250 0.500000 3 32 255 255
0.980785 0.195090 -1.000000 0.995185 0.098017 0.000000 0.781250 0.500000 3 32 255 255
0.980785 0.195090 1.000000 0.995185 0.098017 0.000000 0.781250 1.000000 222 123 108 255
1.000000 0.000000 1.000000 0.995185 0.098017 0.000000 0.750000 1.000000 217 135 117 255
1.000000 0.000000 -1.000000 0.995185 0.098017 0.000000 0.750000 0.500000 16 33 254 255
1.000000 0.000000 -1.000000 0.995185 -0.098017 0.000000 0.750000 0.500000 16 33 254 255
1.000000 0.000000 1.000000 0.995185 -0.098017 0.000000 0.750000 1.000000 217 135 117 255
0.980785 -0.195090 1.000000 0.995185 -0.098017 0.000000 0.718750 1.000000 211 144 123 255
0.980785 -0.195090 -1.000000 0.995185 -0.098017 0.000000 0.718750 0.500000 37 33 252 255
0.980785 -0.195090 -1.000000 0.956940 -0.290285 0.000000 0.718750 0.500000 37 33 252 255
0.980785 -0.195090 1.000000 0.956940 -0.290285 0.000000 0.718750 1.000000 211 144 123 255
0.923880 -0.382683 1.000000 0.956940 -0.290285 0.000000 0.687500 1.000000 206 150 126 255
0.923880 -0.382683 -1.000000 0.956940 -0.290285 0.000000 0.687500 0.500000 57 31 249 255
0.923880 -0.382683 -1.000000 0.881921 -0.471396 0.000000 0.687500 0.500000 57 31 249 255
0.923880 -0.382683 1.000000 0.881921 -0.471396 0.000000 0.687500 1.000000 206 150 126 255
0.831470 -0.555570 1.000000 0.881921 -0.471396 0.000000 0.656250 1.000000 201 155 131 255
0.831470 -0.555570 -1.000000 0.881921 -0.471396 0.000000 0.656250 0.500000 69 30 245 255
0.831470 -0.555570 -1.000000 0.773010 -0.634393 0.000000 0.656250 0.500000 69 30 245 255
0.831470 -0.555570 1.000000 0.773010 -0.634393 0.000000 0.656250 1.000000 201 155 131 255
0.707107 -0.707107 1.000000 0.773010 -0.634393 0.000000 0.625000 1.000000 197 167 139 255
0.707107 -0.707107 -1.000000 0.773010 -0.634393 0.000000 0.625000 0.500000 78 30 243 255
0.707107 -0.707107 -1.000000 0.634393 -0.773010 0.000000 0.625000 0.500000 78 30 243 255
0.707107 -0.707107 1.000000 0.634393 -0.773010 0.000000 0.625000 1.000000 197 167 139 255
0.555570 -0.831470 1.000000 0.634393 -0.773010 0.000000 0.593750 1.000000 184 180 145 255
0.555570 -0.831470 -1.000000 0.634393 -0.773010 0.000000 0.593750 0.500000 85 30 240 255
0.555570 -0.831470 -1.000000 0.471397 -0.881921 0.000000 0.593750 0.500000 85 30 240 255
0.555570 -0.831470 1.000000 0.471397 -0.881921 0.000000 0.593750 1.000000 184 180 145 255
0.382683 -0.923880 1.000000 0.471397 -0.881921 0.000000 0.562500 1.000000 148 212 158 255
0.382683 -0.923880 -1.000000 0.471397 -0.881921 0.000000 0.562500 0.500000 86 35 241 255
0.382683 -0.923880 -1.000000 0.290284 -0.956940 0.000000 0.562500 0.500000 86 35 241 255
0.382683 -0.923880 1.000000 0.290284 -0.956940 0.000000 0.562500 1.000000 148 212 158 255
0.195090 -0.980785 1.000000 0.290284 -0.956940 0.000000 0.531250 1.000000 95 241 173 255
0.195090 -0.980785 -1.000000 0.290284 -0.956940 0.000000 0.531250 0.500000 63 61 243 255
0.195090 -0.980785 -1.000000 0.098017 -0.995185 0.000000 0.531250 0.500000 63 61 243 255
0.195090 -0.980785 1.000000 0.098017 -0.995185 0.000000 0.531250 1.000000 95 241 173 255
-0.000000 -1.000000 1.000000 0.098017 -0.995185 0.000000 0.500000 1.000000 57 254 178 255
-0.000000 -1.000000 -1.000000 0.098017 -0.995185 0.000000 0.500000 0.500000 29 75 248 255
-0.000000 -1.000000 -1.000000 -0.098018 -0.995185 0.000000 0.500000 0.500000 29 75 248 255
-0.000000 -1.000000 1.000000 -0.098018 -0.995185 0.000000 0.500000 1.000000 57 254 178 255
-0.195091 -0.980785 1.000000 -0.098018 -0.995185 0.000000 0.468750 1.000000 52 255 180 255
-0.195091 -0.980785 -1.000000 -0.098018 -0.995185 0.000000 0.468750 0.500000 18 68 249 255
-0.195091 -0.980785 -1.000000 -0.290285 -0.956940 0.000000 0.468750 0.500000 18 68 249 255
-0.195091 -0.980785 1.000000 -0.290285 -0.956940 0.000000 0.468750 1.000000 52 255 180 255
-0.382684 -0.923879 1.000000 -0.290285 -0.956940 0.000000 0.437500 1.000000 54 255 177 255
-0.382684 -0.923879 -1.000000 -0.290285 -0.956940 0.000000 0.437500 0.500000 16 61 250 255
-0.382684 -0.923879 -1.000000 -0.471397 -0.881921 0.000000 0.437500 0.500000 16 61 250 255
-0.382684 -0.923879 1.000000 -0.471397 -0.881921 0.000000 0.437500 1.000000 54 255 177 255
-0.555571 -0.831469 1.000000 -0.471397 -0.881921 0.000000 0.406250 1.000000 55 255 174 255
-0.555571 -0.831469 -1.000000 -0.471397 -0.881921 0.000000 0.406250 0.500000 13 57 251 255
-0.555571 -0.831469 -1.000000 -0.634394 -0.773010 0.000000 0.406250 0.500000 13 57 251 255
-0.555571 -0.831469 1.000000 -0.634394 -0.773010 0.000000 0.406250 1.000000 55 255 174 255
-0.707107 -0.707106 1.000000 -0.634394 -0.773010 0.000000 0.375000 1.000000 58 255 171 255
-0.707107 -0.707106 -1.000000 -0.634394 -0.773010 0.000000 0.375000 0.500000 12 53 253 255
-0.707107 -0.707106 -1.000000 -0.773011 -0.634393 0.000000 0.375000 0.500000 12 53 253 255
-0.707107 -0.707106 1.000000 -0.773011 -0.634393 0.000000 0.375000 1.000000 58 255 171 255
-0.831470 -0.555570 1.000000 -0.773011 -0.634393 0.000000 0.343750 1.000000 64 254 167 255
-0.831470 -0.555570 -1.000000 -0.773011 -0.634393 0.000000 0.343750 0.500000 10 44 253 255
-0.831470 -0.555570 -1.000000 -0.881922 -0.471396 0.000000 0.343750 0.500000 10 44 253 255
-0.831470 -0.555570 1.000000 -0.881922 -0.471396 0.000000 0.343750 1.000000 64 254 167 255
-0.923880 -0.382683 1.000000 -0.881922 -0.471396 0.000000 0.312500 1.000000 119 233 179 255
-0.923880 -0.382683 -1.000000 -0.881922 -0.471396 0.000000 0.312500 0.500000 9 34 255 255
-0.923880 -0.382683 -1.000000 -0.956941 -0.290284 0.000000 0.312500 0.500000 9 34 255 255
-0.923880 -0.382683 1.000000 -0.956941 -0.290284 0.000000 0.312500 1.000000 119 233 179 255
-0.980785 -0.195089 1.000000 -0.956941 -0.290284 0.000000 0.281250 1.000000 203 157 215 255
-0.980785 -0.195089 -1.000000 -0.956941 -0.290284 0.000000 0.281250 0.500000 5 32 255 255
-0.980785 -0.195089 -1.000000 -0.995185 -0.098016 0.000000 0.281250 0.500000 5 32 255 255
-0.980785 -0.195089 1.000000 -0.995185 -0.098016 0.000000 0.281250 1.000000 203 157 215 255
-1.000000 0.000001 1.000000 -0.995185 -0.098016 0.000000 0.250000 1.000000 230 108 227 255
-1.000000 0.000001 -1.000000 -0.995185 -0.098016 0.000000 0.250000 0.500000 1 32 255 255
-1.000000 0.000001 -1.000000 -0.995185 0.098018 0.000000 0.250000 0.500000 1 32 255 255
-1.000000 0.000001 1.000000 -0.995185 0.098018 0.000000 0.250000 1.000000 230 108 227 255
-0.980785 0.195091 1.000000 -0.995185 0.098018 0.000000 0.218750 1.000000 234 106 223 255
-0.980785 0.195091 -1.000000 -0.995185 0.098018 0.000000 0.218750 0.500000 0 32 255 255
-0.980785 0.195091 -1.000000 -0.956940 0.290286 0.000000 0.218750 0.500000 0 32 255 255
-0.980785 0.195091 1.000000 -0.956940 0.290286 0.000000 0.218750 1.000000 234 106 223 255
-0.923879 0.382684 1.000000 -0.956940 0.290286 0.000000 0.187500 1.000000 230 153 201 255
-0.923879 0.382684 -1.000000 -0.956940 0.290286 0.000000 0.187500 0.500000 0 32 255 255
-0.923879 0.382684 -1.000000 -0.881921 0.471398 0.000000 0.187500 0.500000 0 32 255 255
-0.923879 0.382684 1.000000 -0.881921 0.471398 0.000000 0.187500 1.000000 230 153 201 255
-0.831469 0.555571 1.000000 -0.881921 0.471398 0.000000 0.156250 1.000000 207 239 133 255
-0.831469 0.555571 -1.000000 -0.881921 0.471398 0.000000 0.156250 0.500000 0 32 255 255
-0.831469 0.555571 -1.000000 -0.773010 0.634394 0.000000 0.156250 0.500000 0 32 255 255
-0.831469 0.555571 1.000000 -0.773010 0.634394 0.000000 0.156250 1.000000 207 239 133 255
-0.707106 0.707108 1.000000 -0.773010 0.634394 0.000000 0.125000 1.000000 194 254 65 255
-0.707106 0.707108 -1.000000 -0.773010 0.634394 0.000000 0.125000 0.500000 0 32 255 255
-0.707106 0.707108 -1.000000 -0.634392 0.773011 0.000000 0.125000 0.500000 0 32 255 255
-0.707106 0.707108 1.000000 -0.634392 0.773011 0.000000 0.125000 1.000000 194 254 65 255
-0.555569 0.831470 1.000000 -0.634392 0.773011 0.000000 0.093750 1.000000 195 255 49 255
-0.555569 0.831470 -1.000000 -0.634392 0.773011 0.000000 0.093750 0.500000 0 32 255 255
-0.555569 0.831470 -1.000000 -0.471395 0.881922 0.000000 0.093750 0.500000 0 32 255 255
-0.555569 0.831470 1.000000 -0.471395 0.881922 0.000000 0.093750 1.000000 195 255 49 255
-0.382682 0.923880 1.000000 -0.471395 0.881922 0.000000 0.062500 1.000000 195 255 46 255
-0.382682 0.923880 -1.000000 -0.471395 0.881922 0.000000 0.062500 0.500000 0 32 255 255
0.195090 0.980785 1.000000 -0.000000 0.000000 1.000000 0.296822 0.485388 193 255 45 255
0.000000 1.000000 1.000000 -0.000000 0.000000 1.000000 0.250000 0.490000 195 255 40 255
-0.195089 0.980786 1.000000 -0.000000 0.000000 1.000000 0.203179 0.485389 195 255 44 255
-0.382682 0.923880 1.000000 -0.000000 0.000000 1.000000 0.158156 0.471731 195 255 46 255
-0.555569 0.831470 1.000000 -0.000000 0.000000 1.000000 0.116663 0.449553 195 255 49 255
-0.707106 0.707108 1.000000 -0.000000 0.000000 1.000000 0.080295 0.419706 194 254 65 255
-0.831469 0.555571 1.000000 -0.000000 0.000000 1.000000 0.050447 0.383337 207 239 133 255
-0.923879 0.382684 1.000000 -0.000000 0.000000 1.000000 0.028269 0.341844 230 153 201 255
-0.980785 0.195091 1.000000 -0.000000 0.000000 1.000000 0.014612 0.296822 234 106 223 255
-1.000000 0.000001 1.000000 -0.000000 0.000000 1.000000 0.010000 0.250000 230 108 227 255
-0.980785 -0.195089 1.000000 -0.000000 0.000000 1.000000 0.014611 0.203179 203 157 215 255
-0.923880 -0.382683 1.000000 -0.000000 0.000000 1.000000 0.028269 0.158156 119 233 179 255
-0.831470 -0.555570 1.000000 -0.000000 0.000000 1.000000 0.050447 0.116663 64 254 167 255
-0.707107 -0.707106 1.000000 -0.000000 0.000000 1.000000 0.080294 0.080294 58 255 171 255
-0.555571 -0.831469 1.000000 -0.000000 0.000000 1.000000 0.116663 0.050447 55 255 174 255
-0.382684 -0.923879 1.000000 -0.000000 0.000000 1.000000 0.158156 0.028269 54 255 177 255
-0.195091 -0.980785 1.000000 -0.000000 0.000000 1.000000 0.203178 0.014612 52 255 180 255
-0.000000 -1.000000 1.000000 -0.000000 0.000000 1.000000 0.250000 0.010000 57 254 178 255
0.195090 -0.980785 1.000000 -0.000000 0.000000 1.000000 0.296822 0.014612 95 241 173 255
0.382683 -0.923880 1.000000 -0.000000 0.000000 1.000000 0.341844 0.028269 148 212 158 255
0.555570 -0.831470 1.000000 -0.000000 0.000000 1.000000 0.383337 0.050447 184 180 145 255
0.707107 -0.707107 1.000000 -0.000000 0.000000 1.000000 0.419706 0.080294 197 167 139 255
0.831470 -0.555570 1.000000 -0.000000 0.000000 1.000000 0.449553 0.116663 201 155 131 255
0.923880 -0.382683 1.000000 -0.000000 0.000000 1.000000 0.471731 0.158156 206 150 126 255
0.980785 -0.195090 1.000000 -0.000000 0.000000 1.000000 0.485388 0.203178 211 144 123 255
1.000000 0.000000 1.000000 -0.000000 0.000000 1.000000 0.490000 0.250000 217 135 117 255
0.980785 0.195090 1.000000 -0.000000 0.000000 1.000000 0.485388 0.296822 222 123 108 255
0.923880 0.382683 1.000000 -0.000000 0.000000 1.000000 0.471731 0.341844 224 113 107 255
0.831470 0.555570 1.000000 -0.000000 0.000000 1.000000 0.449553 0.383337 231 108 96 255
0.707107 0.707107 1.000000 -0.000000 0.000000 1.000000 0.419706 0.419706 224 139 84 255
0.555570 0.831470 1.000000 -0.000000 0.000000 1.000000 0.383337 0.449553 193 209 66 255
0.382683 0.923880 1.000000 -0.000000 0.000000 1.000000 0.341844 0.471731 183 249 54 255
-0.382682 0.923880 -1.000000 -0.290283 0.956941 0.000000 0.062500 0.500000 0 32 255 255
-0.382682 0.923880 1.000000 -0.290283 0.956941 0.000000 0.062500 1.000000 195 255 46 255
-0.195089 0.980786 1.000000 -0.290283 0.956941 0.000000 0.031250 1.000000 195 255 44 255
-0.195089 0.980786 -1.000000 -0.290283 0.956941 0.000000 0.031250 0.500000 0 32 255 255
-0.195089 0.980786 -1.000000 -0.098017 0.995185 0.000000 0.031250 0.500000 0 32 255 255
-0.195089 0.980786 1.000000 -0.098017 0.995185 0.000000 0.031250 1.000000 195 255 44 255
0.000000 1.000000 1.000000 -0.098017 0.995185 0.000000 0.000000 1.000000 195 255 40 255
0.000000 1.000000 -1.000000 -0.098017 0.995185 0.000000 0.000000 0.500000 0 32 255 255
0.000000 1.000000 -1.000000 0.000000 0.000000 -1.000000 0.750000 0.490000 0 32 255 255
0.195090 0.980785 -1.000000 0.000000 0.000000 -1.000000 0.796822 0.485388 0 32 255 255
0.382683 0.923880 -1.000000 0.000000 0.000000 -1.000000 0.841844 0.471731 0 32 255 255
0.555570 0.831470 -1.000000 0.000000 0.000000 -1.000000 0.883337 0.449553 0 32 255 255
0.707107 0.707107 -1.000000 0.000000 0.000000 -1.000000 0.919706 0.419706 0 32 255 255
0.831470 0.555570 -1.000000 0.000000 0.000000 -1.000000 0.949553 0.383337 0 32 255 255
0.923880 0.382683 -1.000000 0.000000 0.000000 -1.000000 0.971731 0.341844 0 32 255 255
0.980785 0.195090 -1.000000 0.000000 0.000000 -1.000000 0.985388 0.296822 3 32 255 255
1.000000 0.000000 -1.000000 0.000000 0.000000 -1.000000 0.990000 0.250000 16 33 254 255
0.980785 -0.195090 -1.000000 0.000000 0.000000 -1.000000 0.985388 0.203178 37 33 252 255
0.923880 -0.382683 -1.000000 0.000000 0.000000 -1.000000 0.971731 0.158156 57 31 249 255
0.831470 -0.555570 -1.000000 0.000000 0.000000 -1.000000 0.949553 0.116663 69 30 245 255
0.707107 -0.707107 -1.000000 0.000000 0.000000 -1.000000 0.919706 0.080294 78 30 243 255
0.555570 -0.831470 -1.000000 0.000000 0.000000 -1.000000 0.883337 0.050447 85 30 240 255
0.382683 -0.923880 -1.000000 0.000000 0.000000 -1.000000 0.841844 0.028269 86 35 241 255
0.195090 -0.980785 -1.000000 0.000000 0.000000 -1.000000 0.796822 0.014612 63 61 243 255
-0.000000 -1.000000 -1.000000 0.000000 0.000000 -1.000000 0.750000 0.010000 29 75 248 255
-0.195091 -0.980785 -1.000000 0.000000 0.000000 -1.000000 0.703178 0.014612 18 68 249 255
-0.382684 -0.923879 -1.000000 0.000000 0.000000 -1.000000 0.658156 0.028269 16 61 250 255
-0.555571 -0.831469 -1.000000 0.000000 0.000000 -1.000000 0.616663 0.050447 13 57 251 255
-0.707107 -0.707106 -1.000000 0.000000 0.000000 -1.000000 0.580294 0.080294 12 53 253 255
-0.831470 -0.555570 -1.000000 0.000000 0.000000 -1.000000 0.550447 0.116663 10 44 253 255
-0.923880 -0.382683 -1.000000 0.000000 0.000000 -1.000000 0.528269 0.158156 9 34 255 255
-0.980785 -0.195089 -1.000000 0.000000 0.000000 -1.000000 0.514611 0.203179 5 32 255 255
-1.000000 0.000001 -1.000000 0.000000 0.000000 -1.000000 0.510000 0.250000 1 32 255 255
-0.980785 0.195091 -1.000000 0.000000 0.000000 -1.000000 0.514612 0.296822 0 32 255 255
-0.923879 0.382684 -1.000000 0.000000 0.000000 -1.000000 0.528269 0.341844 0 32 255 255
-0.831469 0.555571 -1.000000 0.000000 0.000000 -1.000000 0.550447 0.383337 0 32 255 255
-0.707106 0.707108 -1.000000 0.000000 0.000000 -1.000000 0.580295 0.419706 0 32 255 255
-0.555569 0.831470 -1.000000 0.000000 0.000000 -1.000000 0.616663 0.449553 0 32 255 255
-0.382682 0.923880 -1.000000 0.000000 0.000000 -1.000000 0.658156 0.471731 0 32 255 255
-0.195089 0.980786 -1.000000 0.000000 0.000000 -1.000000 0.703179 0.485389 0 32 255 255
4 0 1 2 3
4 4 5 6 7
4 8 9 10 11
4 12 13 14 15
4 16 17 18 19
4 20 21 22 23
4 24 25 26 27
4 28 29 30 31
4 32 33 34 35
4 36 37 38 39
4 40 41 42 43
4 44 45 46 47
4 48 49 50 51
4 52 53 54 55
4 56 57 58 59
4 60 61 62 63
4 64 65 66 67
4 68 69 70 71
4 72 73 74 75
4 76 77 78 79
4 80 81 82 83
4 84 85 86 87
4 88 89 90 91
4 92 93 94 95
4 96 97 98 99
4 100 101 102 103
4 104 105 106 107
4 108 109 110 111
4 112 113 114 115
4 116 117 118 119
32 120 121 122 123 124 125 126 127 128 129 130 131 132 133 134 135 136 137 138 139 140 141 142 143 144 145 146 147 148 149 150 151
4 152 153 154 155
4 156 157 158 159
32 160 161 162 163 164 165 166 167 168 169 170 171 172 173 174 175 176 177 178 179 180 181 182 183 184 185 186 187 188 189 190 191
