ply
format ascii 1.0
comment Created by Blender 2.92.0 - www.blender.org
element vertex 199
property float x
property float y
property float z
property float nx
property float ny
property float nz
element face 128
property list uchar uint vertex_indices
end_header
0.544579 -0.100000 0.442363 0.000000 -1.000000 -0.000000
0.736579 -0.100000 0.367402 0.000000 -1.000000 -0.000000
0.736579 -0.100000 0.442363 0.000000 -1.000000 -0.000000
0.544579 0.100000 0.367183 -0.999947 0.000000 -0.010334
0.548389 -0.100000 -0.001448 -0.999947 0.000000 -0.010334
0.544579 -0.100000 0.367183 -0.999947 0.000000 -0.010334
0.004579 0.100000 -0.001448 0.000000 1.000000 0.000000
0.192365 0.100000 0.371273 0.000000 1.000000 0.000000
0.193207 0.100000 -0.001448 0.000000 1.000000 0.000000
0.736579 0.100000 0.368449 -0.000000 1.000000 0.000000
0.548389 0.100000 -0.001448 -0.000000 1.000000 0.000000
0.544579 0.100000 0.367183 -0.000000 1.000000 0.000000
0.192365 -0.100000 0.439738 0.000000 -1.000000 -0.000000
0.004579 -0.100000 0.373323 0.000000 -1.000000 -0.000000
0.192365 -0.100000 0.373587 0.000000 -1.000000 -0.000000
0.192365 0.100000 0.439738 0.999991 0.000000 -0.004177
0.193794 -0.100000 0.781833 0.999991 0.000000 -0.004177
0.192365 -0.100000 0.439738 0.999991 0.000000 -0.004177
0.193207 -0.100000 -0.001448 0.784027 0.000000 -0.620727
0.544579 0.100000 0.442363 0.784027 0.000000 -0.620727
0.544579 -0.100000 0.442363 0.784027 0.000000 -0.620727
0.192365 -0.100000 0.373587 1.000000 -0.000000 0.000000
0.192365 0.100000 0.439738 1.000000 -0.000000 0.000000
0.192365 -0.100000 0.439738 1.000000 -0.000000 0.000000
0.004579 -0.100000 -0.001448 0.000000 0.000000 -1.000000
0.193207 0.100000 -0.001448 0.000000 0.000000 -1.000000
0.193207 -0.100000 -0.001448 0.000000 0.000000 -1.000000
0.004579 -0.100000 -0.001448 -1.000000 -0.000000 0.000000
0.004579 0.100000 0.372156 -1.000000 -0.000000 0.000000
0.004579 0.100000 -0.001448 -1.000000 -0.000000 0.000000
0.193794 -0.100000 0.781833 -0.000000 0.000000 1.000000
0.004579 0.100000 0.781833 -0.000000 0.000000 1.000000
0.004579 -0.100000 0.781833 -0.000000 0.000000 1.000000
0.544579 -0.100000 0.785596 -0.000000 -1.000000 0.000000
0.544579 -0.100000 0.367183 -1.000000 -0.000000 0.000000
0.544579 0.100000 0.442363 -1.000000 -0.000000 0.000000
0.544579 0.100000 0.367183 -1.000000 -0.000000 0.000000
0.736579 0.100000 0.442363 1.000000 -0.000000 0.000000
0.736579 -0.100000 0.785596 1.000000 -0.000000 0.000000
0.736579 -0.100000 0.442363 1.000000 -0.000000 0.000000
0.736579 0.100000 0.368449 1.000000 0.000000 0.000000
0.548389 -0.100000 -0.001448 -0.000000 0.000000 -1.000000
0.736579 0.100000 -0.001448 -0.000000 0.000000 -1.000000
0.736579 -0.100000 -0.001448 -0.000000 0.000000 -1.000000
0.191420 -0.448057 0.373778 0.999989 -0.001924 -0.004177
0.192365 -0.100000 0.439738 0.999989 -0.001924 -0.004177
0.193794 -0.100000 0.781833 0.999989 -0.001924 -0.004177
0.736579 -0.100000 0.785596 -0.000000 0.000000 1.000000
0.544579 0.100000 0.785596 -0.000000 0.000000 1.000000
0.544579 -0.100000 0.785596 -0.000000 0.000000 1.000000
0.544579 0.100000 0.442363 0.000000 1.000000 0.000000
0.736579 0.100000 0.442363 0.000000 1.000000 0.000000
0.544579 -0.448057 0.785466 -0.000728 0.768683 0.639629
0.736579 -0.100000 0.367402 -0.000728 0.768683 0.639629
0.544579 -0.100000 0.367183 -0.000728 0.768683 0.639629
0.736579 -0.100000 0.367402 1.000000 0.000000 0.000000
0.736579 0.100000 -0.001448 1.000000 0.000000 0.000000
0.544579 0.100000 0.785596 -0.760109 0.000000 0.649796
0.192365 -0.100000 0.373587 -0.760109 0.000000 0.649796
0.544579 -0.100000 0.785596 -0.760109 0.000000 0.649796
0.004579 -0.100000 -0.001448 0.000000 -1.000000 -0.000000
0.736579 0.100000 0.785596 0.000000 1.000000 -0.000000
0.736579 -0.448057 0.001630 0.000000 -0.000000 -1.000000
0.544579 -0.628179 0.001630 0.000000 -0.000000 -1.000000
0.544579 -0.448057 0.001630 0.000000 -0.000000 -1.000000
0.736579 -0.100000 0.785596 0.000000 -1.000000 0.000000
0.736579 -0.448057 0.443271 -0.000000 -0.787491 -0.616326
0.548389 -0.100000 -0.001448 -0.000000 -0.787491 -0.616326
0.736579 -0.100000 -0.001448 -0.000000 -0.787491 -0.616326
0.736579 -0.448057 0.443271 1.000000 -0.000000 -0.000000
0.736579 -0.100000 -0.001448 1.000000 -0.000000 -0.000000
0.736579 -0.628179 0.001630 0.000000 -1.000000 0.000000
0.544579 -0.628178 0.373252 0.000000 -1.000000 0.000000
0.544579 -0.628179 0.001630 0.000000 -1.000000 0.000000
0.191420 -0.628178 0.448835 -0.000000 -1.000000 0.000000
0.736579 -0.628178 0.373252 0.000000 -1.000000 0.000000
0.544579 -0.628178 0.443271 0.000000 -1.000000 0.000000
0.736579 -0.448057 0.373252 1.000000 0.000000 -0.000000
0.736579 -0.628179 0.001630 1.000000 0.000000 -0.000000
0.736579 -0.448057 0.001630 1.000000 0.000000 -0.000000
0.544579 -0.628178 0.373252 -1.000000 -0.000000 0.000000
0.544579 -0.448057 0.443271 -1.000000 -0.000000 0.000000
0.544579 -0.448057 0.373252 -1.000000 -0.000000 0.000000
0.544579 -0.448057 0.373252 0.000000 1.000000 -0.000000
0.736579 -0.448057 0.443271 0.000000 1.000000 -0.000000
0.736579 -0.448057 0.373252 0.000000 1.000000 -0.000000
0.736579 -0.628178 0.373252 1.000000 0.000000 0.000000
0.736579 -0.628178 0.443271 1.000000 0.000000 0.000000
0.544579 -0.448057 0.785466 0.000000 0.000001 1.000000
0.736579 -0.628178 0.785466 0.000000 0.000001 1.000000
0.736579 -0.448057 0.785466 0.000000 0.000001 1.000000
0.544579 -0.448057 0.443271 -0.999944 -0.002259 -0.010334
0.544579 -0.100000 0.367183 -0.999944 -0.002259 -0.010334
0.548389 -0.100000 -0.001448 -0.999944 -0.002259 -0.010334
0.736579 -0.448057 0.785466 1.000000 0.000000 0.000000
0.736579 -0.628178 0.785466 1.000000 0.000000 0.000000
0.736579 -0.628178 0.443271 0.000000 -1.000000 0.000000
0.544579 -0.628178 0.785466 0.000000 -1.000000 0.000000
0.191420 -0.628178 0.373778 1.000000 0.000000 0.000000
0.191420 -0.448057 0.448835 1.000000 0.000000 0.000000
0.191420 -0.628178 0.448835 1.000000 0.000000 0.000000
0.001570 -0.628178 0.000025 -1.000000 -0.000000 0.000000
0.001570 -0.448057 0.373778 -1.000000 -0.000000 0.000000
0.001570 -0.448057 0.000025 -1.000000 -0.000000 0.000000
0.191420 -0.628178 0.373778 0.000000 -1.000000 0.000000
0.001570 -0.628178 0.000025 0.000000 -1.000000 0.000000
0.191420 -0.628178 0.000025 0.000000 -1.000000 0.000000
0.191420 -0.628178 0.000025 -0.000000 -0.000000 -1.000000
0.001570 -0.448057 0.000025 -0.000000 -0.000000 -1.000000
0.191420 -0.448057 0.000025 -0.000000 -0.000000 -1.000000
0.004579 -0.100000 0.781833 0.000000 -0.760825 0.648957
0.191420 -0.448057 0.373778 0.000000 -0.760825 0.648957
0.193794 -0.100000 0.781833 0.000000 -0.760825 0.648957
0.001570 -0.628178 0.782470 0.000000 -1.000000 0.000000
0.001570 -0.628178 0.448835 0.000000 -1.000000 0.000000
0.001570 -0.448057 0.373778 0.000000 1.000000 -0.000000
0.191420 -0.448057 0.448835 0.000000 1.000000 -0.000000
0.191420 -0.448057 0.373778 0.000000 1.000000 -0.000000
0.001570 -0.628178 0.373778 0.000000 -1.000000 0.000000
0.001570 -0.628178 0.373778 -1.000000 -0.000000 0.000000
0.001570 -0.448057 0.448835 -1.000000 -0.000000 0.000000
0.191420 -0.448057 0.782470 0.000000 -0.000000 1.000000
0.001570 -0.628178 0.782470 0.000000 -0.000000 1.000000
0.191420 -0.628178 0.782470 0.000000 -0.000000 1.000000
0.001570 -0.628178 0.782470 -1.000000 -0.000000 -0.000000
0.001570 -0.448057 0.782470 -1.000000 -0.000000 -0.000000
0.001570 -0.448057 0.782470 0.000000 1.000000 -0.000000
0.001570 -0.448057 0.448835 0.000000 1.000000 -0.000000
0.544579 -0.448057 0.373252 0.757057 0.000000 0.653348
0.191420 -0.628178 0.782470 0.757057 0.000000 0.653348
0.544579 -0.628178 0.373252 0.757057 0.000000 0.653348
0.004579 0.100000 0.441712 0.000000 1.000000 0.000000
0.193794 0.100000 0.781833 0.000000 1.000000 0.000000
0.192365 0.100000 0.439738 0.000000 1.000000 0.000000
0.004579 0.100000 0.441712 -1.000000 -0.000000 -0.000000
0.004579 -0.100000 0.781833 -1.000000 -0.000000 -0.000000
0.004579 0.100000 0.781833 -1.000000 -0.000000 -0.000000
0.544579 -0.448057 0.001630 0.000000 1.000000 -0.000000
0.736579 -0.448057 0.001630 0.000000 1.000000 -0.000000
0.004579 -0.100000 0.373323 -1.000000 -0.000000 0.000000
0.544579 0.100000 0.785596 0.000000 1.000000 -0.000000
0.004579 -0.100000 0.441706 -0.999963 0.008644 0.000000
0.001570 -0.448057 0.373778 -0.999963 0.008644 0.000000
0.004579 -0.100000 0.781833 -0.999963 0.008644 0.000000
0.004579 0.100000 0.372156 0.000000 1.000000 0.000000
0.192365 -0.100000 0.439738 -0.006486 0.785440 -0.618904
0.001570 -0.448057 0.000025 -0.006486 0.785440 -0.618904
0.004579 -0.100000 0.441706 -0.006486 0.785440 -0.618904
0.191420 -0.448057 0.373778 1.000000 0.000000 -0.000000
0.191420 -0.628178 0.000025 1.000000 0.000000 -0.000000
0.191420 -0.448057 0.000025 1.000000 0.000000 -0.000000
0.544579 -0.628178 0.443271 -1.000000 -0.000000 0.000000
0.544579 -0.448057 0.785466 -1.000000 -0.000000 0.000000
0.191420 -0.628178 0.448835 -0.784795 -0.000000 -0.619755
0.544579 -0.448057 0.001630 -0.784795 -0.000000 -0.619755
0.544579 -0.628179 0.001630 -0.784795 -0.000000 -0.619755
0.544579 -0.100000 0.367183 0.000000 -1.000000 -0.000000
0.548389 0.100000 -0.001448 -0.999947 0.000000 -0.010334
0.736579 0.100000 -0.001448 0.000000 1.000000 0.000000
0.004579 -0.100000 0.441706 -0.000000 -1.000000 -0.000000
0.193794 0.100000 0.781833 0.999991 0.000000 -0.004177
0.193207 0.100000 -0.001448 0.784027 0.000000 -0.620727
0.192365 0.100000 0.371273 1.000000 0.000000 0.000000
0.004579 0.100000 -0.001448 0.000000 0.000000 -1.000000
0.193794 0.100000 0.781833 -0.000000 0.000000 1.000000
0.193207 -0.100000 -0.001448 -0.000000 -1.000000 -0.000000
0.544579 -0.100000 0.442363 -1.000000 -0.000000 -0.000000
0.736579 0.100000 0.785596 1.000000 -0.000000 0.000000
0.548389 0.100000 -0.001448 -0.000000 0.000000 -1.000000
0.191420 -0.448057 0.373778 0.999996 -0.002715 0.000000
0.191420 -0.448057 0.000025 0.999996 -0.002715 0.000000
0.192365 -0.100000 0.439738 0.999996 -0.002715 0.000000
0.736579 0.100000 0.785596 -0.000000 0.000000 1.000000
0.544579 -0.448057 0.785466 0.000000 0.768519 0.639827
0.736579 -0.448057 0.785466 0.000000 0.768519 0.639827
0.736579 -0.100000 0.367402 0.000000 0.768519 0.639827
0.544579 0.100000 0.785596 -0.761881 0.007492 0.647674
0.192365 0.100000 0.371273 -0.761881 0.007492 0.647674
0.192365 -0.100000 0.373587 -0.761881 0.007492 0.647674
0.736579 -0.628179 0.001630 0.000000 -0.000000 -1.000000
0.544579 -0.448057 0.443271 0.000000 -0.787491 -0.616326
0.191420 -0.628178 0.782470 -0.000000 -1.000000 0.000000
0.544579 -0.448057 0.443271 0.000000 1.000000 0.000000
0.544579 -0.628178 0.785466 0.000000 0.000001 1.000000
0.736579 -0.628178 0.785466 0.000000 -1.000000 0.000000
0.001570 -0.628178 0.000025 0.000000 -0.000000 -1.000000
0.001570 -0.448057 0.373778 0.000000 -0.760825 0.648957
0.001570 -0.628178 0.448835 -1.000000 -0.000000 -0.000000
0.001570 -0.448057 0.782470 0.000000 0.000000 1.000000
0.191420 -0.448057 0.782470 0.000000 1.000000 -0.000000
0.191420 -0.448057 0.782470 0.757057 -0.000000 0.653348
0.004579 0.100000 0.781833 0.000000 1.000000 0.000000
0.004579 -0.100000 0.441706 -1.000000 0.000000 0.000000
0.001570 -0.448057 0.000025 -0.999963 0.008644 -0.000000
0.192365 -0.100000 0.439738 0.000000 0.784089 -0.620649
0.191420 -0.448057 0.000025 0.000000 0.784089 -0.620649
0.001570 -0.448057 0.000025 0.000000 0.784089 -0.620649
0.544579 -0.628178 0.785466 -1.000000 -0.000000 -0.000000
0.191420 -0.448057 0.448835 -0.784795 -0.000000 -0.619755
3 0 1 2
3 3 4 5
3 6 7 8
3 9 10 11
3 12 13 14
3 15 16 17
3 18 19 20
3 21 22 23
3 24 25 26
3 27 28 29
3 30 31 32
3 14 0 33
3 34 35 36
3 37 38 39
3 39 40 37
3 41 42 43
3 44 45 46
3 47 48 49
3 9 50 51
3 52 53 54
3 55 56 40
3 57 58 59
3 60 14 13
3 50 61 51
3 62 63 64
3 65 0 2
3 66 67 68
3 55 69 70
3 71 72 73
3 72 74 73
3 75 76 72
3 77 78 79
3 80 81 82
3 83 84 85
3 86 69 87
3 88 89 90
3 91 92 93
3 87 94 95
3 96 97 76
3 98 99 100
3 101 102 103
3 104 105 106
3 107 108 109
3 110 111 112
3 74 113 114
3 115 116 117
3 104 114 118
3 119 120 102
3 121 122 123
3 120 124 125
3 126 116 127
3 128 129 130
3 131 132 133
3 134 135 136
3 137 85 138
3 139 134 28
3 50 7 140
3 141 142 143
3 144 133 7
3 145 146 147
3 148 149 150
3 151 152 81
3 153 154 155
3 116 83 137
3 0 156 1
3 3 157 4
3 6 144 7
3 9 158 10
3 12 159 13
3 15 160 16
3 18 161 19
3 21 162 22
3 24 163 25
3 27 139 28
3 30 164 31
3 14 165 0
3 34 166 35
3 37 167 38
3 39 55 40
3 41 168 42
3 169 170 171
3 47 172 48
3 9 11 50
3 173 174 175
3 55 70 56
3 176 177 178
3 60 165 14
3 50 140 61
3 62 179 63
3 65 33 0
3 66 180 67
3 55 94 69
3 71 75 72
3 72 181 74
3 75 96 76
3 77 86 78
3 80 151 81
3 83 182 84
3 86 77 69
3 88 183 89
3 81 152 34
3 87 69 94
3 96 184 97
3 98 148 99
3 101 119 102
3 104 118 105
3 107 185 108
3 110 186 111
3 74 181 113
3 115 127 116
3 104 74 114
3 119 187 120
3 121 188 122
3 120 187 124
3 126 189 116
3 128 190 129
3 131 191 132
3 134 192 135
3 137 83 85
3 139 192 134
3 50 8 7
3 141 193 142
3 144 131 133
3 194 195 196
3 148 98 149
3 151 197 152
3 153 198 154
3 116 189 83
