ply
format ascii 1.0
comment Created by Blender 2.92.0 - www.blender.org
element vertex 48
property float x
property float y
property float z
property float nx
property float ny
property float nz
property float s
property float t
element face 96
property list uchar uint vertex_indices
end_header
-0.248852 -0.550000 0.251127 0.624928 -0.712851 -0.318186 0.053690 -0.080679
-0.547476 -0.550000 0.552480 -0.574694 -0.577349 0.579943 0.072741 0.129132
-0.548840 -0.550000 0.252492 -0.627796 -0.712851 -0.312510 0.119795 0.132749
-0.247488 -0.550000 0.551115 0.579943 -0.577349 0.574694 -0.037373 0.099138
0.547476 -0.550000 -0.552480 0.574694 -0.577349 -0.579943 0.061994 -0.099346
0.248853 -0.550000 -0.251127 -0.624928 -0.712851 0.318186 0.081045 0.128424
0.247488 -0.550000 -0.551115 -0.579943 -0.577349 -0.574694 0.172108 0.119910
0.548841 -0.550000 -0.252492 0.627796 -0.712851 0.312510 0.014940 0.014210
0.552480 0.550000 0.547476 0.579943 0.577349 0.574694 0.016223 0.165076
0.251127 0.550000 0.248853 -0.627796 0.712851 -0.312510 0.107408 0.288084
0.252492 0.550000 0.548840 -0.574694 0.577349 0.579943 0.061479 0.300158
0.551115 0.550000 0.247488 0.624928 0.712851 -0.318186 0.050494 0.124021
0.548841 0.550000 -0.252492 0.579943 0.577349 0.574694 -0.008182 0.173764
0.247488 0.550000 -0.551115 -0.318186 0.712851 -0.624928 0.122872 0.191643
0.248853 0.550000 -0.251127 -0.312510 0.712851 0.627796 0.030211 0.279414
0.547476 0.550000 -0.552480 0.574694 0.577349 -0.579943 0.090000 0.118981
-0.251127 0.550000 -0.248853 0.627796 0.712851 0.312479 0.027326 0.153391
-0.552479 0.550000 -0.547476 -0.579943 0.577349 -0.574694 0.118512 0.259791
-0.551115 0.550000 -0.247488 -0.624928 0.712851 0.318186 0.084240 0.315813
-0.252492 0.550000 -0.548840 0.574694 0.577349 -0.579943 0.073255 0.104018
-0.247488 0.550000 0.551115 0.318186 0.712851 0.624928 0.011863 0.228155
-0.548840 0.550000 0.252492 -0.579943 0.577349 -0.574694 0.142917 0.201959
-0.547476 0.550000 0.552480 -0.574694 0.577349 0.579943 0.044735 0.293670
-0.248852 0.550000 0.251127 0.312510 0.712851 -0.627796 0.104523 0.131320
0.252492 -0.550000 0.548840 -0.312510 -0.712851 0.627796 0.051297 0.120096
0.551115 -0.550000 0.247488 0.574694 -0.577349 -0.579943 0.072396 -0.083429
0.552480 -0.550000 0.547476 0.579943 -0.577349 0.574694 -0.029184 0.114512
0.251127 -0.550000 0.248853 -0.318186 -0.712851 -0.624928 0.143550 0.055554
-0.252492 -0.550000 -0.548840 0.312510 -0.712851 -0.627796 0.083437 -0.079649
-0.551115 -0.550000 -0.247488 -0.574694 -0.577349 0.579943 0.062339 0.138486
-0.552479 -0.550000 -0.547476 -0.579943 -0.577349 -0.574694 0.163919 0.089245
-0.251127 -0.550000 -0.248853 0.318186 -0.712851 0.624928 -0.008816 0.120505
-0.248852 0.000000 0.251127 0.703879 0.000000 -0.710288 0.083125 0.003173
-0.548840 0.000000 0.252492 -0.980071 0.186682 -0.067690 0.114700 0.218484
0.248853 -0.000000 -0.251127 -0.703879 0.000000 0.710288 0.051610 0.173609
0.548841 -0.000000 -0.252492 0.980071 0.186682 0.067690 0.020035 0.101225
-0.251127 -0.000000 -0.248853 0.710288 0.000000 0.703879 -0.046047 0.153460
-0.551115 -0.000000 -0.247488 -0.979400 -0.186682 0.076601 0.101251 0.175341
0.251127 0.000000 0.248853 -0.710288 0.000000 -0.703879 0.180782 0.149118
0.551115 0.000000 0.247488 0.979400 -0.186682 -0.076601 0.033484 0.037673
0.247488 -0.000000 -0.551115 -0.076601 -0.186682 -0.979400 0.148303 0.081893
0.547476 -0.000000 -0.552480 0.703879 0.000000 -0.710288 0.073574 0.048915
-0.252492 -0.000000 -0.548840 0.067690 0.186682 -0.980071 0.132800 0.110521
-0.552479 -0.000000 -0.547476 -0.710288 0.000000 -0.703879 0.184551 0.142469
0.252492 0.000000 0.548840 -0.067690 0.186682 0.980071 0.001935 0.200932
0.552480 0.000000 0.547476 0.710288 0.000000 0.703879 -0.049816 0.127000
-0.247488 0.000000 0.551115 0.076601 -0.186682 0.979400 -0.013568 0.151809
-0.547476 0.000000 0.552480 -0.703879 0.000000 0.710288 0.061161 0.220555
3 0 1 2
3 0 3 1
3 4 5 6
3 4 7 5
3 8 9 10
3 11 9 8
3 12 13 14
3 12 15 13
3 16 17 18
3 19 17 16
3 20 21 22
3 20 23 21
3 24 25 26
3 24 27 25
3 28 29 30
3 28 31 29
3 16 18 32
3 32 18 33
3 34 9 35
3 35 9 11
3 36 29 31
3 37 29 36
3 34 12 14
3 35 12 34
3 32 21 23
3 33 21 32
3 25 38 39
3 25 27 38
3 15 40 13
3 41 40 15
3 42 30 43
3 42 28 30
3 26 44 24
3 45 44 26
3 46 22 47
3 46 20 22
3 41 6 40
3 41 4 6
3 43 19 42
3 43 17 19
3 28 13 40
3 28 42 13
3 47 3 46
3 47 1 3
3 20 24 44
3 20 46 24
3 10 45 8
3 10 44 45
3 31 14 36
3 31 34 14
3 27 23 38
3 27 32 23
3 32 3 0
3 46 3 32
3 36 19 16
3 42 19 36
3 34 6 5
3 40 6 34
3 10 38 44
3 10 9 38
3 17 37 18
3 43 37 17
3 33 1 47
3 33 2 1
3 4 35 7
3 35 4 41
3 39 8 45
3 39 11 8
3 32 24 46
3 27 24 32
3 34 28 40
3 31 28 34
3 41 12 35
3 41 15 12
3 7 11 39
3 11 7 35
3 25 45 26
3 25 39 45
3 47 21 33
3 47 22 21
3 18 2 33
3 2 18 37
3 29 43 30
3 37 43 29
3 38 9 5
3 5 9 34
3 36 16 0
3 0 16 32
3 14 13 36
3 20 38 23
3 36 13 42
3 36 2 37
3 44 38 20
3 38 7 39
3 0 2 36
3 5 7 38
