ply
format ascii 1.0
comment Created by Blender 2.92.0 - www.blender.org
element vertex 146
property float x
property float y
property float z
property float nx
property float ny
property float nz
property uchar red
property uchar green
property uchar blue
property uchar alpha
element face 96
property list uchar uint vertex_indices
end_header
29.977900 57.437996 -29.865610 0.573931 0.580859 -0.577197 22 104 216 255
29.978001 27.065298 -12.843705 0.980132 0.185247 0.070528 22 105 217 255
29.978001 -0.000005 -29.865601 0.577319 -0.578753 -0.575915 22 104 216 255
29.978001 0.111898 -12.844000 0.627003 -0.709220 0.322245 22 104 216 255
-29.966200 57.210697 -12.845010 -0.625629 0.704520 0.334971 22 104 216 255
-29.966000 0.022295 -29.865601 -0.576098 -0.578387 -0.577502 22 104 216 255
-29.966400 -0.000002 -12.847500 -0.576128 -0.579058 0.576830 22 104 216 255
-13.113500 26.087498 -12.849004 0.060091 0.170782 0.983459 52 219 131 255
-13.108400 0.070998 -12.849400 0.322825 -0.710501 0.625263 44 207 123 255
13.125100 30.637697 -12.848905 -0.061983 -0.173101 0.982940 43 238 132 255
13.125100 30.637697 -12.848905 -0.061983 -0.173101 0.982940 43 239 132 255
13.113000 57.265297 -12.849210 -0.329142 0.708029 0.624744 44 205 123 255
29.978001 27.065298 -12.843705 0.980132 0.185247 0.070528 43 219 124 255
29.978001 57.461296 -12.847409 0.574175 0.581439 0.576373 43 204 123 255
-13.108400 0.070998 -12.849400 0.322825 -0.710501 0.625263 43 204 123 255
-29.966000 0.022295 -29.865601 -0.576098 -0.578387 -0.577502 43 203 122 255
-13.108200 0.113595 -29.865601 0.321299 -0.709861 -0.626759 43 204 123 255
-29.966400 57.458096 -29.865610 -0.576983 0.581164 -0.573840 255 229 13 255
-13.113800 57.273396 -12.845710 0.623127 0.706870 0.334635 255 229 13 255
-13.113100 57.461296 -29.865610 0.576708 0.580889 -0.574389 255 229 13 255
-29.959600 29.647398 -12.846604 -0.508927 -0.245918 0.824885 56 207 124 255
-13.113500 30.648499 -12.849005 0.982971 -0.172948 0.061800 43 211 129 255
-29.965401 26.055601 13.365596 -0.981903 0.177801 -0.064821 22 105 217 255
-29.965401 57.461304 30.260391 -0.574511 0.580706 0.576769 22 104 217 255
-29.965401 57.461304 13.364791 -0.574511 0.580676 -0.576800 22 104 216 255
-13.113200 26.055601 13.365596 0.981933 0.177740 -0.064791 22 120 238 255
-13.113700 0.047202 13.356400 0.625721 -0.710105 -0.322764 22 106 220 255
-13.113500 30.648499 -12.849005 0.982971 -0.172948 0.061800 28 110 231 255
-13.113800 57.273396 -12.845710 0.623127 0.706870 0.334635 22 106 219 255
-13.107600 27.125994 -29.865604 0.070894 0.185766 -0.980010 26 104 216 255
-13.113100 57.461296 -29.865610 0.576708 0.580889 -0.574389 23 104 217 255
-13.107600 27.125994 -29.865604 0.070894 0.185766 -0.980010 44 204 123 255
-29.966400 57.458096 -29.865610 -0.576983 0.581164 -0.573840 43 204 122 255
-13.113100 57.461296 -29.865610 0.576708 0.580889 -0.574389 43 203 122 255
-29.965401 0.047202 13.356400 -0.625538 -0.710929 -0.321329 22 104 217 255
-29.959600 29.647398 -12.846604 -0.508927 -0.245918 0.824885 22 128 238 255
-29.966200 57.210697 -12.845010 -0.625629 0.704520 0.334971 43 232 136 255
-29.966400 -0.000002 -12.847500 -0.576128 -0.579058 0.576830 44 204 122 255
-29.959600 29.647398 -12.846604 -0.508927 -0.245918 0.824885 55 207 124 255
-29.965401 0.000005 30.260401 -0.577197 -0.578204 0.576586 43 203 122 255
-13.113700 0.047202 13.356400 0.625721 -0.710105 -0.322764 43 204 123 255
-13.113000 0.000005 30.260401 0.577197 -0.578204 0.576586 43 203 122 255
-29.965401 57.461304 30.260391 -0.574511 0.580706 0.576769 255 229 13 255
-13.109600 57.281303 13.365991 0.333445 0.706565 -0.624134 255 230 13 255
-29.965401 57.461304 13.364791 -0.574511 0.580676 -0.576800 255 229 13 255
-13.113900 30.664705 30.260494 0.066591 -0.179968 0.981384 22 104 215 255
-13.113000 0.000005 30.260401 0.577197 -0.578204 0.576586 22 104 217 255
-13.113900 30.664705 30.260494 0.066591 -0.179968 0.981384 44 204 123 255
29.978201 0.000005 30.260401 0.575976 -0.578967 0.577074 22 104 217 255
29.978201 57.222404 13.357890 0.626911 0.706442 -0.328440 22 104 217 255
29.978201 57.461304 30.260391 0.576922 0.581103 0.573962 22 104 216 255
13.108800 0.086905 30.260401 -0.328074 -0.708792 0.624470 43 203 122 255
13.126200 26.108906 30.260397 -0.064882 0.177831 0.981903 44 204 123 255
-13.109600 57.281303 30.260391 0.333415 0.706534 0.624165 43 204 122 255
-13.113200 30.658901 13.365396 0.066652 -0.180059 -0.981384 43 239 133 255
-13.109600 57.281303 13.365991 0.333445 0.706565 -0.624134 44 208 124 255
13.126200 26.108902 13.365596 -0.065004 0.177831 -0.981903 52 218 130 255
13.108800 0.086902 13.366400 -0.328135 -0.708792 -0.624409 43 206 124 255
-29.965401 26.055601 13.365596 -0.981903 0.177801 -0.064821 42 209 147 255
-29.965401 57.461304 13.364791 -0.574511 0.580676 -0.576800 43 205 123 255
-13.113700 0.047202 13.356400 0.625721 -0.710105 -0.322764 255 89 80 255
-29.959600 29.647398 -12.846604 -0.508927 -0.245918 0.824885 255 95 81 255
-13.113500 30.648499 -12.849005 0.982971 -0.172948 0.061800 255 89 80 255
-29.965401 26.055601 13.365596 -0.981903 0.177801 -0.064821 43 202 122 255
-13.113200 26.055601 13.365596 0.981933 0.177740 -0.064791 43 211 147 255
-29.966200 57.210697 -12.845010 -0.625629 0.704520 0.334971 43 204 123 255
-13.113800 57.273396 -12.845710 0.623127 0.706870 0.334635 43 207 124 255
29.978201 57.461304 30.260391 0.576922 0.581103 0.573962 43 204 122 255
29.978201 0.000005 30.260401 0.575976 -0.578967 0.577074 43 204 122 255
13.108800 0.086902 13.366400 -0.328135 -0.708792 -0.624409 43 204 123 255
29.978201 0.000005 30.260401 0.575976 -0.578967 0.577074 43 203 122 255
13.108800 0.086905 30.260401 -0.328074 -0.708792 0.624470 43 204 123 255
29.977100 29.683203 13.361095 0.169805 -0.330790 -0.928281 57 212 125 255
29.978500 0.000002 13.362700 0.575945 -0.578967 -0.577105 44 203 122 255
29.977100 29.683203 13.361095 0.169805 -0.330790 -0.928281 56 207 123 255
29.978201 57.222404 13.357890 0.626911 0.706442 -0.328440 43 224 129 255
29.978201 57.461304 30.260391 0.576922 0.581103 0.573962 255 229 13 255
13.127200 57.282204 13.359091 -0.624683 0.707907 -0.329539 255 229 13 255
13.124800 57.461304 30.260391 -0.576830 0.580645 0.574511 255 229 13 255
29.978001 -0.000005 -29.865601 0.577319 -0.578753 -0.575915 43 203 122 255
13.126600 0.055998 -12.844300 -0.624866 -0.710501 0.323496 43 204 123 255
13.119600 -0.000005 -29.865601 -0.577258 -0.578387 -0.576373 43 203 122 255
13.113000 57.265297 -12.849210 -0.329142 0.708029 0.624744 255 89 79 255
-13.107600 27.125994 -29.865604 0.070894 0.185766 -0.980010 255 88 78 255
-13.113500 26.087498 -12.849004 0.060091 0.170782 0.983459 255 91 79 255
-13.108400 0.070998 -12.849400 0.322825 -0.710501 0.625263 43 206 123 255
13.114600 29.615194 -29.866005 0.442885 -0.218726 -0.869472 43 202 122 255
13.125100 30.637697 -12.848905 -0.061983 -0.173101 0.982940 43 233 130 255
13.113000 57.265297 -12.849210 -0.329142 0.708029 0.624744 255 229 13 255
29.977900 57.437996 -29.865610 0.573931 0.580859 -0.577197 255 229 13 255
13.110500 57.199898 -29.865610 -0.327799 0.706565 -0.627094 255 229 13 255
13.114600 29.615194 -29.866005 0.442885 -0.218726 -0.869472 43 204 123 255
13.110500 57.199898 -29.865610 -0.327799 0.706565 -0.627094 43 204 123 255
-13.109600 57.281303 13.365991 0.333445 0.706565 -0.624134 255 89 79 255
13.126200 26.108906 30.260397 -0.064882 0.177831 0.981903 255 103 84 255
13.126200 26.108902 13.365596 -0.065004 0.177831 -0.981903 255 90 79 255
13.108800 0.086905 30.260401 -0.328074 -0.708792 0.624470 43 204 122 255
-13.113200 30.658901 13.365396 0.066652 -0.180059 -0.981384 43 237 129 255
29.978001 27.065298 -12.843705 0.980132 0.185247 0.070528 42 211 145 255
13.127200 57.282204 13.359091 -0.624683 0.707907 -0.329539 43 205 124 255
29.978201 57.222404 13.357890 0.626911 0.706442 -0.328440 43 204 123 255
29.977900 57.437996 -29.865610 0.573931 0.580859 -0.577197 43 203 122 255
29.977100 29.683203 13.361095 0.169805 -0.330790 -0.928281 22 117 239 255
13.125000 26.067299 -12.848904 -0.983459 0.170751 0.060335 22 120 239 255
13.126600 0.055998 -12.844300 -0.624866 -0.710501 0.323496 23 105 220 255
13.125900 30.660103 13.365595 -0.982940 -0.173162 -0.061769 28 110 235 255
13.127200 57.282204 13.359091 -0.624683 0.707907 -0.329539 23 105 219 255
13.126200 26.108906 30.260397 -0.064882 0.177831 0.981903 22 103 215 255
13.124800 57.461304 30.260391 -0.576830 0.580645 0.574511 22 104 217 255
13.114600 29.615194 -29.866005 0.442885 -0.218726 -0.869472 22 103 214 255
13.119600 -0.000005 -29.865601 -0.577258 -0.578387 -0.576373 22 105 217 255
13.125000 26.067299 -12.848904 -0.983459 0.170751 0.060335 22 103 213 255
13.114600 29.615194 -29.866005 0.442885 -0.218726 -0.869472 22 126 228 255
13.125100 30.637697 -12.848905 -0.061983 -0.173101 0.982940 22 111 226 255
29.977100 29.683203 13.361095 0.169805 -0.330790 -0.928281 255 92 81 255
13.126600 0.055998 -12.844300 -0.624866 -0.710501 0.323496 255 89 80 255
29.978001 0.111898 -12.844000 0.627003 -0.709220 0.322245 255 88 79 255
29.978001 57.461296 -12.847409 0.574175 0.581439 0.576373 22 104 216 255
-29.966400 57.458096 -29.865610 -0.576983 0.581164 -0.573840 22 104 216 255
13.125000 26.067299 -12.848904 -0.983459 0.170751 0.060335 43 210 130 255
-29.966400 -0.000002 -12.847500 -0.576128 -0.579058 0.576830 43 203 122 255
-29.966200 57.210697 -12.845010 -0.625629 0.704520 0.334971 255 229 13 255
-29.965401 0.000005 30.260401 -0.577197 -0.578204 0.576586 22 104 216 255
-13.113500 26.087498 -12.849004 0.060091 0.170782 0.983459 22 110 227 255
-13.108200 0.113595 -29.865601 0.321299 -0.709861 -0.626759 43 203 122 255
-29.965401 0.047202 13.356400 -0.625538 -0.710929 -0.321329 43 204 123 255
-13.109600 57.281303 30.260391 0.333415 0.706534 0.624165 255 229 13 255
-13.113200 30.658901 13.365396 0.066652 -0.180059 -0.981384 22 110 227 255
-29.965401 57.461304 30.260391 -0.574511 0.580706 0.576769 43 203 122 255
29.978500 0.000002 13.362700 0.575945 -0.578967 -0.577105 22 104 216 255
-13.113200 26.055601 13.365596 0.981933 0.177740 -0.064791 42 209 149 255
-29.965401 0.047202 13.356400 -0.625538 -0.710929 -0.321329 255 89 79 255
13.124800 57.461304 30.260391 -0.576830 0.580645 0.574511 43 203 122 255
29.978500 0.000002 13.362700 0.575945 -0.578967 -0.577105 43 203 122 255
13.125900 30.660103 13.365595 -0.982940 -0.173162 -0.061769 43 210 130 255
29.978201 57.222404 13.357890 0.626911 0.706442 -0.328440 255 229 13 255
29.978001 0.111898 -12.844000 0.627003 -0.709220 0.322245 43 204 123 255
13.110500 57.199898 -29.865610 -0.327799 0.706565 -0.627094 255 88 79 255
29.978001 57.461296 -12.847409 0.574175 0.581439 0.576373 255 229 13 255
-13.109600 57.281303 30.260391 0.333415 0.706534 0.624165 255 88 79 255
-13.113900 30.664705 30.260494 0.066591 -0.179968 0.981384 43 203 122 255
13.125000 26.067299 -12.848904 -0.983459 0.170751 0.060335 43 222 129 255
13.119600 -0.000005 -29.865601 -0.577258 -0.578387 -0.576373 43 204 122 255
13.126200 26.108902 13.365596 -0.065004 0.177831 -0.981903 22 124 224 255
13.110500 57.199898 -29.865610 -0.327799 0.706565 -0.627094 22 103 214 255
13.125900 30.660103 13.365595 -0.982940 -0.173162 -0.061769 255 89 81 255
3 0 1 2
3 2 1 3
3 4 5 6
3 7 8 9
3 10 11 7
3 9 12 13
3 14 15 16
3 17 18 19
3 20 7 21
3 22 23 24
3 25 26 27
3 27 28 25
3 27 29 30
3 31 15 32
3 33 31 32
3 34 22 4
3 34 4 35
3 36 37 38
3 39 40 41
3 42 43 44
3 25 45 46
3 47 39 41
3 48 49 50
3 51 52 47
3 53 47 52
3 54 55 56
3 56 57 54
3 54 58 59
3 60 61 62
3 63 64 65
3 64 66 65
3 67 52 68
3 69 70 71
3 56 72 73
3 73 74 75
3 76 77 78
3 79 80 81
3 82 83 84
3 85 86 87
3 88 89 90
3 91 31 92
3 93 94 95
3 96 97 57
3 98 99 100
3 79 92 101
3 102 1 49
3 103 104 105
3 105 106 103
3 105 107 108
3 109 110 111
3 112 103 113
3 114 115 116
3 0 117 1
3 4 118 5
3 7 37 8
3 10 13 11
3 9 119 12
3 14 120 15
3 17 121 18
3 20 37 7
3 22 122 23
3 25 46 26
3 27 30 28
3 27 123 29
3 31 124 15
3 34 122 22
3 39 125 40
3 42 126 43
3 25 127 45
3 47 128 39
3 48 129 49
3 51 68 52
3 53 128 47
3 54 59 55
3 56 73 57
3 54 130 58
3 60 131 61
3 67 132 52
3 69 133 70
3 56 134 72
3 76 135 77
3 79 136 80
3 82 137 83
3 85 16 86
3 88 138 89
3 91 124 31
3 93 139 94
3 96 140 97
3 98 141 99
3 79 142 92
3 102 3 1
3 103 110 104
3 105 108 106
3 105 143 107
3 109 144 110
3 114 145 115
