ply
format ascii 1.0
comment Created by Blender 2.92.0 - www.blender.org
element vertex 186
property float x
property float y
property float z
property float s
property float t
element face 128
property list uchar uint vertex_indices
end_header
-0.544579 0.442363 -0.100000 1.000000 0.000000
-0.736579 0.367402 -0.100000 0.000000 1.000000
-0.736579 0.442363 -0.100000 0.000000 0.000000
-0.544579 0.367183 0.100000 1.000000 0.000000
-0.548389 -0.001448 -0.100000 0.000000 1.000000
-0.544579 0.367183 -0.100000 0.000000 0.000000
-0.004579 -0.001448 0.100000 0.000000 0.000000
-0.192365 0.371273 0.100000 1.000000 1.000000
-0.193207 -0.001448 0.100000 0.000000 1.000000
-0.736579 0.368449 0.100000 1.000000 0.000000
-0.548389 -0.001448 0.100000 0.000000 1.000000
-0.544579 0.367183 0.100000 0.000000 0.000000
-0.192365 0.439738 -0.100000 0.000000 0.000000
-0.004579 0.373323 -0.100000 1.000000 1.000000
-0.192365 0.373587 -0.100000 0.000000 1.000000
-0.192365 0.439738 0.100000 1.000000 0.000000
-0.193794 0.781833 -0.100000 0.000000 1.000000
-0.193207 -0.001448 -0.100000 1.000000 0.000000
-0.544579 0.442363 0.100000 0.000000 1.000000
-0.544579 0.442363 -0.100000 0.000000 0.000000
-0.192365 0.373587 -0.100000 1.000000 0.000000
-0.192365 0.439738 0.100000 0.000000 1.000000
-0.004579 -0.001448 -0.100000 1.000000 0.000000
-0.193207 -0.001448 -0.100000 0.000000 0.000000
-0.004579 -0.001448 -0.100000 0.000000 0.000000
-0.004579 0.372156 0.100000 1.000000 1.000000
-0.004579 -0.001448 0.100000 0.000000 1.000000
-0.193794 0.781833 -0.100000 1.000000 0.000000
-0.004579 0.781833 0.100000 0.000000 1.000000
-0.004579 0.781833 -0.100000 0.000000 0.000000
-0.544579 0.442363 -0.100000 0.000000 1.000000
-0.544579 0.785596 -0.100000 0.000000 0.000000
-0.544579 0.442363 0.100000 1.000000 1.000000
-0.544579 0.367183 0.100000 0.000000 1.000000
-0.736579 0.442363 0.100000 1.000000 0.000000
-0.736579 0.785596 -0.100000 0.000000 1.000000
-0.736579 0.368449 0.100000 1.000000 1.000000
-0.736579 0.442363 0.100000 0.000000 1.000000
-0.548389 -0.001448 -0.100000 1.000000 0.000000
-0.736579 -0.001448 0.100000 0.000000 1.000000
-0.736579 -0.001448 -0.100000 0.000000 0.000000
-0.191420 0.373778 -0.448057 1.000000 0.000000
-0.192365 0.439738 -0.100000 0.000000 1.000000
-0.193794 0.781833 -0.100000 0.000000 0.000000
-0.736579 0.785596 -0.100000 1.000000 0.000000
-0.544579 0.785596 0.100000 0.000000 1.000000
-0.736579 0.368449 0.100000 0.000000 0.000000
-0.544579 0.785466 -0.448057 1.000000 0.000000
-0.736579 0.367402 -0.100000 1.000000 0.000000
-0.544579 0.785596 0.100000 0.000000 0.000000
-0.192365 0.373587 -0.100000 1.000000 1.000000
-0.544579 0.785596 -0.100000 0.000000 1.000000
-0.004579 0.373323 -0.100000 0.000000 1.000000
-0.544579 0.442363 0.100000 1.000000 0.000000
-0.736579 0.785596 0.100000 0.000000 1.000000
-0.736579 0.442363 0.100000 0.000000 0.000000
-0.736579 0.001630 -0.448057 1.000000 0.000000
-0.544579 0.001630 -0.628179 0.000000 1.000000
-0.544579 0.001630 -0.448057 0.000000 0.000000
-0.736579 0.443271 -0.448057 1.000000 0.000000
-0.736579 0.367402 -0.100000 0.000000 0.000000
-0.736579 0.443271 -0.448057 1.000000 1.000000
-0.736579 -0.001448 -0.100000 0.000000 1.000000
-0.736579 0.001630 -0.628179 1.000000 0.000000
-0.544579 0.373252 -0.628178 0.000000 1.000000
-0.544579 0.001630 -0.628179 0.000000 0.000000
-0.544579 0.373252 -0.628178 0.000000 0.000000
-0.191420 0.448835 -0.628178 1.000000 1.000000
-0.736579 0.373252 -0.628178 1.000000 0.000000
-0.544579 0.443271 -0.628178 0.000000 1.000000
-0.736579 0.373252 -0.448057 1.000000 0.000000
-0.736579 0.001630 -0.628179 0.000000 1.000000
-0.736579 0.001630 -0.448057 0.000000 0.000000
-0.544579 0.373252 -0.628178 1.000000 0.000000
-0.544579 0.443271 -0.448057 0.000000 1.000000
-0.544579 0.373252 -0.448057 0.000000 0.000000
-0.544579 0.373252 -0.448057 1.000000 0.000000
-0.736579 0.443271 -0.448057 0.000000 1.000000
-0.736579 0.373252 -0.448057 0.000000 0.000000
-0.736579 0.373252 -0.628178 0.000000 0.000000
-0.736579 0.443271 -0.628178 0.000000 1.000000
-0.736579 0.785466 -0.628178 0.000000 1.000000
-0.736579 0.785466 -0.448057 0.000000 0.000000
-0.544579 0.443271 -0.448057 1.000000 0.000000
-0.544579 0.367183 -0.100000 0.000000 1.000000
-0.548389 -0.001448 -0.100000 0.000000 0.000000
-0.736579 0.443271 -0.628178 0.000000 0.000000
-0.736579 0.785466 -0.448057 1.000000 1.000000
-0.736579 0.443271 -0.628178 1.000000 0.000000
-0.544579 0.785466 -0.628178 0.000000 1.000000
-0.544579 0.443271 -0.628178 0.000000 0.000000
-0.191420 0.373778 -0.628178 0.000000 0.000000
-0.191420 0.448835 -0.448057 1.000000 1.000000
-0.191420 0.448835 -0.628178 0.000000 1.000000
-0.001570 0.000025 -0.628178 1.000000 0.000000
-0.001570 0.373778 -0.448057 0.000000 1.000000
-0.001570 0.000025 -0.448057 0.000000 0.000000
-0.191420 0.373778 -0.628178 1.000000 0.000000
-0.001570 0.000025 -0.628178 0.000000 1.000000
-0.191420 0.000025 -0.628178 0.000000 0.000000
-0.191420 0.000025 -0.628178 1.000000 0.000000
-0.001570 0.000025 -0.448057 0.000000 1.000000
-0.191420 0.000025 -0.448057 0.000000 0.000000
-0.191420 0.373778 -0.448057 1.000000 1.000000
-0.191420 0.448835 -0.628178 1.000000 0.000000
-0.001570 0.782470 -0.628178 0.000000 1.000000
-0.001570 0.448835 -0.628178 0.000000 0.000000
-0.001570 0.373778 -0.448057 1.000000 0.000000
-0.191420 0.448835 -0.448057 0.000000 1.000000
-0.191420 0.373778 -0.448057 0.000000 0.000000
-0.001570 0.448835 -0.628178 0.000000 1.000000
-0.001570 0.373778 -0.628178 0.000000 0.000000
-0.001570 0.373778 -0.628178 1.000000 0.000000
-0.001570 0.448835 -0.448057 0.000000 1.000000
-0.001570 0.373778 -0.448057 0.000000 0.000000
-0.191420 0.782470 -0.448057 1.000000 0.000000
-0.191420 0.782470 -0.628178 0.000000 0.000000
-0.001570 0.448835 -0.448057 0.000000 0.000000
-0.001570 0.782470 -0.628178 1.000000 1.000000
-0.001570 0.782470 -0.448057 0.000000 1.000000
-0.001570 0.782470 -0.448057 1.000000 0.000000
-0.191420 0.782470 -0.628178 1.000000 1.000000
-0.004579 0.441712 0.100000 1.000000 0.000000
-0.193794 0.781833 0.100000 0.000000 1.000000
-0.192365 0.439738 0.100000 0.000000 0.000000
-0.004579 0.441712 0.100000 0.000000 0.000000
-0.004579 0.781833 -0.100000 1.000000 1.000000
-0.544579 0.001630 -0.448057 1.000000 0.000000
-0.736579 0.373252 -0.448057 0.000000 1.000000
-0.004579 0.373323 -0.100000 1.000000 0.000000
-0.004579 0.441712 0.100000 0.000000 1.000000
-0.004579 0.372156 0.100000 0.000000 0.000000
-0.544579 0.442363 0.100000 0.000000 0.000000
-0.004579 0.441706 -0.100000 0.000000 0.000000
-0.001570 0.373778 -0.448057 1.000000 1.000000
-0.004579 0.781833 -0.100000 0.000000 1.000000
-0.004579 0.372156 0.100000 1.000000 0.000000
-0.192365 0.371273 0.100000 0.000000 0.000000
-0.001570 0.000025 -0.448057 1.000000 1.000000
-0.004579 0.441706 -0.100000 0.000000 1.000000
-0.191420 0.000025 -0.628178 0.000000 1.000000
-0.544579 0.443271 -0.628178 1.000000 0.000000
-0.544579 0.785466 -0.448057 0.000000 1.000000
-0.544579 0.443271 -0.448057 0.000000 0.000000
-0.544579 0.001630 -0.448057 0.000000 1.000000
-0.191420 0.448835 -0.448057 1.000000 0.000000
-0.544579 0.373252 -0.448057 0.000000 1.000000
-0.544579 0.367183 -0.100000 1.000000 1.000000
-0.548389 -0.001448 0.100000 1.000000 1.000000
-0.736579 -0.001448 0.100000 1.000000 1.000000
-0.004579 0.441706 -0.100000 1.000000 0.000000
-0.193794 0.781833 0.100000 1.000000 1.000000
-0.193207 -0.001448 0.100000 1.000000 1.000000
-0.004579 -0.001448 0.100000 1.000000 1.000000
-0.193207 -0.001448 -0.100000 1.000000 1.000000
-0.736579 0.785596 0.100000 1.000000 1.000000
-0.191420 0.000025 -0.448057 1.000000 1.000000
-0.736579 -0.001448 -0.100000 1.000000 1.000000
-0.192365 0.371273 0.100000 1.000000 0.000000
-0.544579 0.785596 0.100000 1.000000 1.000000
-0.736579 0.001630 -0.628179 1.000000 1.000000
-0.544579 0.785596 -0.100000 1.000000 1.000000
-0.544579 0.443271 -0.448057 1.000000 1.000000
-0.736579 0.785466 -0.448057 1.000000 0.000000
-0.736579 0.373252 -0.628178 1.000000 1.000000
-0.191420 0.782470 -0.628178 1.000000 0.000000
-0.736579 0.443271 -0.628178 1.000000 1.000000
-0.544579 0.443271 -0.628178 1.000000 1.000000
-0.544579 0.785466 -0.628178 1.000000 1.000000
-0.544579 0.785466 -0.448057 1.000000 1.000000
-0.736579 0.785466 -0.628178 1.000000 1.000000
-0.001570 0.373778 -0.628178 1.000000 1.000000
-0.001570 0.000025 -0.628178 1.000000 1.000000
-0.001570 0.448835 -0.448057 1.000000 1.000000
-0.001570 0.448835 -0.628178 1.000000 1.000000
-0.001570 0.782470 -0.448057 1.000000 1.000000
-0.001570 0.448835 -0.628178 1.000000 0.000000
-0.191420 0.782470 -0.448057 1.000000 1.000000
-0.004579 0.781833 0.100000 1.000000 1.000000
-0.544579 0.373252 -0.448057 1.000000 1.000000
-0.004579 0.441706 -0.100000 1.000000 1.000000
-0.193207 -0.001448 0.100000 1.000000 0.000000
-0.001570 0.000025 -0.448057 1.000000 0.000000
-0.004579 0.441712 0.100000 1.000000 1.000000
-0.191420 0.000025 -0.448057 1.000000 0.000000
-0.191420 0.373778 -0.628178 1.000000 1.000000
3 0 1 2
3 3 4 5
3 6 7 8
3 9 10 11
3 12 13 14
3 15 16 12
3 17 18 19
3 20 21 12
3 22 8 23
3 24 25 26
3 27 28 29
3 20 30 31
3 5 32 33
3 34 35 2
3 2 36 37
3 38 39 40
3 41 42 43
3 44 45 31
3 46 32 37
3 47 1 5
3 48 39 46
3 49 50 51
3 24 50 52
3 53 54 55
3 56 57 58
3 44 30 2
3 59 4 40
3 60 61 62
3 63 64 65
3 66 67 57
3 68 69 66
3 70 71 72
3 73 74 75
3 76 77 78
3 79 61 80
3 47 81 82
3 83 84 85
3 86 87 81
3 88 89 90
3 91 92 93
3 94 95 96
3 97 98 99
3 100 101 102
3 29 103 16
3 104 105 106
3 107 108 109
3 97 110 111
3 112 113 114
3 115 105 116
3 117 118 119
3 120 108 117
3 75 121 64
3 122 123 124
3 125 126 28
3 127 128 72
3 129 130 131
3 132 7 45
3 133 134 135
3 136 21 137
3 12 138 139
3 41 140 102
3 141 142 143
3 104 144 65
3 145 146 58
3 0 147 1
3 3 148 4
3 6 136 7
3 9 149 10
3 12 150 13
3 15 151 16
3 17 152 18
3 20 7 21
3 22 153 8
3 24 129 25
3 27 151 28
3 20 154 30
3 5 0 32
3 34 155 35
3 2 48 36
3 38 148 39
3 41 156 42
3 44 155 45
3 46 3 32
3 47 87 1
3 48 157 39
3 49 158 50
3 24 17 50
3 53 159 54
3 56 160 57
3 44 161 30
3 59 162 4
3 60 163 61
3 63 164 64
3 66 165 67
3 68 166 69
3 70 164 71
3 73 167 74
3 76 162 77
3 79 70 61
3 47 168 81
3 83 169 84
3 86 59 87
3 88 170 89
3 91 41 92
3 94 171 95
3 97 171 98
3 100 172 101
3 29 107 103
3 104 121 105
3 107 173 108
3 97 67 110
3 112 174 113
3 115 175 105
3 117 176 118
3 120 177 108
3 75 115 121
3 122 178 123
3 125 150 126
3 127 179 128
3 129 180 130
3 132 181 7
3 133 182 134
3 136 183 21
3 12 184 138
3 41 185 140
3 141 168 142
3 104 92 144
3 145 177 146
