ply
format ascii 1.0
comment Created by Blender 2.92.0 - www.blender.org
element vertex 64
property float x
property float y
property float z
element face 128
property list uchar uint vertex_indices
end_header
-0.544579 0.442363 -0.100000
-0.736579 0.367402 -0.100000
-0.736579 0.442363 -0.100000
-0.544579 0.367183 0.100000
-0.548389 -0.001448 -0.100000
-0.544579 0.367183 -0.100000
-0.004579 -0.001448 0.100000
-0.192365 0.371273 0.100000
-0.193207 -0.001448 0.100000
-0.736579 0.368449 0.100000
-0.548389 -0.001448 0.100000
-0.192365 0.439738 -0.100000
-0.004579 0.373323 -0.100000
-0.192365 0.373587 -0.100000
-0.192365 0.439738 0.100000
-0.193794 0.781833 -0.100000
-0.193207 -0.001448 -0.100000
-0.544579 0.442363 0.100000
-0.004579 -0.001448 -0.100000
-0.004579 0.372156 0.100000
-0.004579 0.781833 0.100000
-0.004579 0.781833 -0.100000
-0.544579 0.785596 -0.100000
-0.736579 0.442363 0.100000
-0.736579 0.785596 -0.100000
-0.736579 -0.001448 0.100000
-0.736579 -0.001448 -0.100000
-0.191420 0.373778 -0.448057
-0.544579 0.785596 0.100000
-0.544579 0.785466 -0.448057
-0.736579 0.785596 0.100000
-0.736579 0.001630 -0.448057
-0.544579 0.001630 -0.628179
-0.544579 0.001630 -0.448057
-0.736579 0.443271 -0.448057
-0.736579 0.001630 -0.628179
-0.544579 0.373252 -0.628178
-0.191420 0.448835 -0.628178
-0.736579 0.373252 -0.628178
-0.544579 0.443271 -0.628178
-0.736579 0.373252 -0.448057
-0.544579 0.443271 -0.448057
-0.544579 0.373252 -0.448057
-0.736579 0.443271 -0.628178
-0.736579 0.785466 -0.628178
-0.736579 0.785466 -0.448057
-0.544579 0.785466 -0.628178
-0.191420 0.373778 -0.628178
-0.191420 0.448835 -0.448057
-0.001570 0.000025 -0.628178
-0.001570 0.373778 -0.448057
-0.001570 0.000025 -0.448057
-0.191420 0.000025 -0.628178
-0.191420 0.000025 -0.448057
-0.001570 0.782470 -0.628178
-0.001570 0.448835 -0.628178
-0.001570 0.373778 -0.628178
-0.001570 0.448835 -0.448057
-0.191420 0.782470 -0.448057
-0.191420 0.782470 -0.628178
-0.001570 0.782470 -0.448057
-0.004579 0.441712 0.100000
-0.193794 0.781833 0.100000
-0.004579 0.441706 -0.100000
3 0 1 2
3 3 4 5
3 6 7 8
3 9 10 3
3 11 12 13
3 14 15 11
3 16 17 0
3 13 14 11
3 18 8 16
3 18 19 6
3 15 20 21
3 13 0 22
3 5 17 3
3 23 24 2
3 2 9 23
3 4 25 26
3 27 11 15
3 24 28 22
3 9 17 23
3 29 1 5
3 1 25 9
3 28 13 22
3 18 13 12
3 17 30 23
3 31 32 33
3 24 0 2
3 34 4 26
3 1 34 26
3 35 36 32
3 36 37 32
3 38 39 36
3 40 35 31
3 36 41 42
3 42 34 40
3 38 34 43
3 29 44 45
3 41 5 4
3 43 45 44
3 43 46 39
3 47 48 37
3 49 50 51
3 47 49 52
3 52 51 53
3 21 27 15
3 37 54 55
3 50 48 27
3 47 55 56
3 56 57 50
3 58 54 59
3 57 54 60
3 60 48 57
3 42 59 36
3 61 62 14
3 61 21 20
3 33 40 31
3 12 61 19
3 17 7 28
3 63 50 21
3 19 14 7
3 11 51 63
3 27 52 53
3 39 29 41
3 37 33 32
3 48 42 33
3 0 5 1
3 3 10 4
3 6 19 7
3 9 25 10
3 11 63 12
3 14 62 15
3 16 8 17
3 13 7 14
3 18 6 8
3 18 12 19
3 15 62 20
3 13 16 0
3 5 0 17
3 23 30 24
3 2 1 9
3 4 10 25
3 27 53 11
3 24 30 28
3 9 3 17
3 29 45 1
3 1 26 25
3 28 7 13
3 18 16 13
3 17 28 30
3 31 35 32
3 24 22 0
3 34 41 4
3 1 45 34
3 35 38 36
3 36 59 37
3 38 43 39
3 40 38 35
3 36 39 41
3 42 41 34
3 38 40 34
3 29 46 44
3 41 29 5
3 43 34 45
3 43 44 46
3 47 27 48
3 49 56 50
3 47 56 49
3 52 49 51
3 21 50 27
3 37 59 54
3 50 57 48
3 47 37 55
3 56 55 57
3 58 60 54
3 57 55 54
3 60 58 48
3 42 58 59
3 61 20 62
3 61 63 21
3 33 42 40
3 12 63 61
3 17 8 7
3 63 51 50
3 19 61 14
3 11 53 51
3 27 47 52
3 39 46 29
3 37 48 33
3 48 58 42
