ply
format ascii 1.0
comment Created by Blender 2.92.0 - www.blender.org
element vertex 48
property float x
property float y
property float z
property uchar red
property uchar green
property uchar blue
property uchar alpha
element face 96
property list uchar uint vertex_indices
end_header
29.978001 -0.000005 -29.865601 0 13 186 255
29.978001 57.461296 -12.847409 79 91 194 255
29.978001 27.065298 -12.843705 0 47 186 255
29.978001 0.111898 -12.844000 33 57 187 255
-29.966400 -0.000002 -12.847500 29 31 187 255
-29.966400 57.458096 -29.865610 39 96 161 255
-29.966000 0.022295 -29.865601 2 23 184 255
-13.113500 26.087498 -12.849004 187 95 19 255
-13.108400 0.070998 -12.849400 189 103 47 255
13.125100 30.637697 -12.848905 186 93 5 255
13.113000 57.265297 -12.849210 186 93 0 255
13.125000 26.067299 -12.848904 187 98 32 255
-13.108200 0.113595 -29.865601 78 194 83 255
-13.113100 57.461296 -29.865610 27 187 38 255
-29.966200 57.210697 -12.845010 11 35 186 255
-13.113800 57.273396 -12.845710 186 94 12 255
-29.959600 29.647398 -12.846604 6 11 186 255
-13.113500 30.648499 -12.849005 189 105 53 255
-29.965401 26.055601 13.365596 39 39 182 255
-29.965401 57.461304 30.260391 7 186 28 255
-29.965401 57.461304 13.364791 72 36 172 255
-13.113200 26.055601 13.365596 186 93 5 255
-13.113700 0.047202 13.356400 186 93 1 255
-13.107600 27.125994 -29.865604 25 187 38 255
-29.965401 0.047202 13.356400 0 8 186 255
-29.965401 0.000005 30.260401 28 187 39 255
-13.113000 0.000005 30.260401 72 193 77 255
-13.109600 57.281303 30.260391 40 188 47 255
-13.109600 57.281303 13.365991 186 93 0 255
-13.113200 30.658901 13.365396 186 93 1 255
-13.113900 30.664705 30.260494 0 186 27 255
29.978201 57.461304 30.260391 0 47 186 255
29.978500 0.000002 13.362700 0 47 186 255
29.978201 57.222404 13.357890 8 48 186 255
13.108800 0.086905 30.260401 3 186 27 255
13.126200 26.108906 30.260397 0 186 27 255
13.126200 26.108902 13.365596 186 93 4 255
13.108800 0.086902 13.366400 187 95 18 255
29.978201 0.000005 30.260401 0 47 186 255
13.125900 30.660103 13.365595 148 199 134 255
29.977100 29.683203 13.361095 4 47 186 255
13.124800 57.461304 30.260391 5 186 28 255
13.127200 57.282204 13.359091 186 93 9 255
13.119600 -0.000005 -29.865601 6 186 28 255
13.126600 0.055998 -12.844300 207 152 130 255
13.114600 29.615194 -29.866005 0 186 27 255
13.110500 57.199898 -29.865610 5 186 27 255
29.977900 57.437996 -29.865610 0 185 22 255
3 0 1 2
3 0 2 3
3 4 5 6
3 7 8 9
3 9 10 7
3 1 11 2
3 12 4 6
3 13 14 15
3 16 7 17
3 18 19 20
3 21 22 17
3 17 15 21
3 13 7 23
3 23 6 5
3 13 23 5
3 24 18 14
3 24 14 16
3 14 4 16
3 25 22 26
3 20 27 28
3 26 29 30
3 26 19 25
3 31 32 33
3 34 35 30
3 27 30 35
3 29 28 36
3 36 37 29
3 20 21 18
3 17 24 16
3 18 21 14
3 21 15 14
3 31 35 38
3 34 32 38
3 32 39 40
3 32 40 33
3 41 33 42
3 43 3 44
3 10 23 7
3 9 12 45
3 46 1 47
3 45 23 46
3 36 27 35
3 37 30 29
3 33 11 42
3 47 43 46
3 40 2 33
3 11 44 39
3 39 42 11
3 39 35 41
3 45 43 11
3 45 11 9
3 40 44 3
3 0 47 1
3 4 14 5
3 7 4 8
3 9 1 10
3 1 9 11
3 12 8 4
3 13 5 14
3 16 4 7
3 18 25 19
3 21 26 22
3 17 13 15
3 13 17 7
3 23 12 6
3 24 25 18
3 25 24 22
3 20 19 27
3 26 21 29
3 26 30 19
3 31 38 32
3 34 38 35
3 27 19 30
3 29 20 28
3 36 32 37
3 20 29 21
3 17 22 24
3 31 41 35
3 34 37 32
3 32 36 39
3 41 31 33
3 43 0 3
3 10 46 23
3 9 8 12
3 46 10 1
3 45 12 23
3 36 28 27
3 37 34 30
3 33 2 11
3 47 0 43
3 40 3 2
3 11 43 44
3 39 41 42
3 39 36 35
3 45 46 43
3 40 39 44
